PathFileType	4	(X/Y/Z)	D:\TRACE\v60_Jaco2_6-2-23\JustBodyDRS_Motion3_4-v60.trc
DataRate	CameraRate	NumFrames	NumMarkers	Units	OrigDataRate	OrigDataStartFrame	OrigNumFrames
100.00	100.00	      21	9	mm	100.00	876	      7000
Frame#	Time	front left toe			Front right toe			aft left toe			aft right toe			Arm			FL body			FR body			AL Body			AR Body			
		X1	Y1	Z1	X2	Y2	Z2	X3	Y3	Z3	X4	Y4	Z4	X5	Y5	Z5	X6	Y6	Z6	X7	Y7	Z7	X8	Y8	Z8	X9	Y9	Z9	

876	8.750	-195.20958	1.01028	-206.49059	183.24898	140.31982	-192.47696	-200.87852	178.10135	423.11868	177.88556	37.79677	415.93127	15.36425	1197.21741	-255.43320	-73.12292	561.81598	-344.40573	85.56024	559.74493	-341.44119	-84.44063	590.90936	599.35254	69.06062	579.26105	602.08807	
877	8.760	-195.14204	1.00406	-206.33192	184.56029	140.15895	-192.84752	-200.84615	178.10146	422.94269	177.98889	37.78533	415.96298	15.78903	1197.07458	-255.61714	-73.47736	561.71069	-344.26569	85.35842	559.53314	-341.36093	-83.56213	591.16162	599.75250	69.89188	579.28589	602.10529	
878	8.770	-195.08591	1.00967	-206.24867	186.25417	136.87489	-193.40701	-200.88158	175.82726	423.23819	178.15147	37.75784	415.98425	15.94991	1196.97046	-255.74397	-73.66470	561.60815	-344.19858	85.05286	559.34595	-341.38226	-82.55875	591.11969	599.91614	71.51047	579.49066	602.10413	
879	8.780	-195.07957	1.04044	-206.27907	186.70920	131.84491	-194.27335	-200.51929	172.32379	423.32870	178.29474	37.80880	415.93561	15.82425	1196.95129	-255.67378	-73.85031	561.58881	-344.15094	84.88566	559.24084	-341.39334	-81.64725	591.38269	600.11798	72.28979	579.58820	602.12762	
880	8.790	-195.08459	1.28197	-206.45351	188.73407	126.84859	-194.04660	-199.73270	167.54709	423.45615	178.41165	37.73453	415.91925	15.73129	1196.93970	-255.50700	-73.95025	561.61047	-344.03619	84.26353	559.25446	-341.23508	-80.18053	591.61139	599.98413	72.52303	579.55591	602.18646	
881	8.800	-195.07753	1.25090	-206.36005	188.64209	119.94722	-195.59116	-198.92546	161.98631	423.31003	178.38547	37.70125	415.93011	15.82612	1196.94324	-255.21692	-73.98604	561.60632	-343.85095	84.18395	559.25934	-341.21585	-80.09934	591.32355	600.08112	72.98923	579.52704	602.24475	
882	8.810	-195.10019	1.06727	-206.01051	188.59215	112.10230	-197.14583	-197.54399	154.93977	422.83984	178.35710	37.60001	415.93832	16.26003	1196.88782	-254.97887	-73.93079	561.50043	-343.53870	84.10937	559.19580	-341.16165	-79.47968	591.31561	600.42865	73.61179	579.46564	602.34308	
883	8.820	-195.04822	1.02703	-205.93700	189.21997	103.73296	-198.87781	-196.40530	146.70799	421.83325	178.24393	37.34451	415.81946	16.90231	1196.82825	-254.77052	-73.85261	561.44812	-343.26904	83.83798	559.25629	-341.02417	-78.64900	591.36389	601.01923	74.36099	579.27509	602.50964	
884	8.830	-195.02751	1.23358	-206.11595	190.04077	94.65744	-200.56364	-195.25565	137.17705	420.51599	178.30252	37.23811	415.80292	17.45543	1196.71729	-254.68382	-74.13632	561.55261	-343.25864	84.53864	559.01898	-341.24469	-78.00578	591.11981	601.01648	74.99098	579.09924	602.66528	
885	8.840	-195.04987	1.26116	-206.12239	191.11484	85.58140	-201.99213	-195.14127	127.16035	419.35767	178.33949	36.99797	415.77805	18.05282	1196.54956	-254.55542	-74.24053	561.56921	-342.98929	84.49805	558.97852	-341.25455	-77.36372	590.76654	601.06689	75.66309	578.85950	602.36212	
886	8.850	-195.02902	1.21754	-206.07671	192.28328	76.24693	-203.09712	-193.80537	116.44930	418.32715	178.30917	36.60848	415.75595	18.55503	1196.42041	-254.38919	-74.30281	561.56561	-342.69598	84.50056	558.88354	-341.14792	-77.12772	590.61609	601.21442	76.31598	578.63708	602.74689	
887	8.860	-195.02170	1.15078	-205.98759	193.26315	66.98376	-204.15117	-192.89061	106.97581	417.44635	178.35638	36.34721	415.76834	18.61705	1196.45984	-254.00343	-74.24126	561.58478	-342.49887	84.55374	558.77704	-341.09726	-76.76868	590.43243	601.44128	76.95392	578.40039	602.82666	
888	8.870	-195.02817	1.19880	-205.96367	193.76236	57.57674	-204.57715	-191.57846	97.76131	417.01718	178.43671	36.17196	415.81558	18.45048	1196.48401	-253.62587	-74.09158	561.58032	-342.32584	84.58687	558.80267	-340.99918	-75.76920	590.14044	601.67908	77.52441	578.09973	602.88202	
889	8.880	-195.04837	1.32050	-205.92528	194.14311	48.37583	-204.95509	-190.65190	88.12186	416.79163	178.50601	36.09322	415.87173	18.26522	1196.54028	-253.13963	-74.01749	561.66302	-342.21707	84.60220	558.93774	-341.00818	-75.05554	590.02185	602.09637	77.99767	577.80145	602.92822	
890	8.890	-195.01672	1.46557	-205.96906	194.62164	40.13797	-204.42688	-190.24785	79.60616	417.14783	178.76927	36.10768	416.02576	18.01185	1196.72485	-252.81433	-74.00736	561.70813	-342.16373	84.64120	559.06738	-341.04837	-74.58591	589.84753	602.27209	78.64953	577.50299	603.09802	
891	8.900	-194.57619	1.14687	-206.17905	195.21164	32.14079	-203.82224	-189.64072	71.45059	417.26837	178.92101	36.04243	416.07343	17.98842	1196.78503	-252.65472	-73.98287	561.78766	-342.09030	84.65067	559.09973	-340.96320	-74.05344	589.51880	602.28247	76.95102	577.86322	603.28864	
892	8.910	-194.58025	1.26399	-206.14964	196.37553	25.64201	-202.95514	-189.53105	64.74302	418.23004	179.11935	35.94117	416.12851	18.01480	1196.75146	-252.41467	-74.01357	561.85510	-342.01245	84.66184	559.11719	-340.93143	-73.66077	589.19739	602.22491	77.42836	577.69427	603.36963	
893	8.920	-194.53116	1.28978	-205.94646	196.79279	19.75216	-202.74995	-188.93446	58.39221	418.13385	179.14218	35.80782	416.24393	18.05641	1196.67810	-252.23705	-74.11001	561.75244	-341.89798	84.61638	559.07349	-340.93036	-73.16460	589.02985	602.31989	79.13796	577.32068	603.45862	
894	8.930	-194.53482	1.34159	-205.84038	198.01675	13.24144	-202.00977	-188.43726	52.41318	418.39139	179.23169	35.80222	416.27347	17.93954	1196.62866	-252.13786	-74.17513	561.68866	-341.77740	84.63284	559.04962	-340.90112	-72.71684	588.80237	602.50415	80.70487	576.86853	603.23224	
895	8.940	-194.77644	1.85119	-205.48567	198.18132	7.15880	-202.02538	-188.26419	45.96169	418.37323	179.24757	35.61894	416.27771	17.77891	1196.52869	-252.09692	-74.24944	561.62128	-341.66248	84.62936	559.05249	-340.88394	-72.44867	588.69122	602.55200	81.08942	576.84290	603.22595	
896	8.950	-194.66165	1.93171	-205.43164	198.73479	5.00520	-202.72957	-188.30664	41.72955	417.15472	179.26280	35.36584	416.22412	17.53591	1196.49670	-252.08305	-74.38002	561.65894	-341.57767	84.64171	559.12811	-340.87973	-71.99598	588.78815	602.87097	81.69324	576.80615	603.22052	
